<?xml version="1.0" encoding="utf-8" standalone="no"?>
<!DOCTYPE svg PUBLIC "-//W3C//DTD SVG 1.1//EN"
  "http://www.w3.org/Graphics/SVG/1.1/DTD/svg11.dtd">
<svg height="576pt" version="1.1" viewBox="0 0 1008 576" width="1008pt" xmlns="http://www.w3.org/2000/svg" xmlns:xlink="http://www.w3.org/1999/xlink">
 <metadata>
  <rdf:RDF xmlns:cc="http://creativecommons.org/ns#" xmlns:dc="http://purl.org/dc/elements/1.1/" xmlns:rdf="http://www.w3.org/1999/02/22-rdf-syntax-ns#">
   <cc:Work>
    <dc:type rdf:resource="http://purl.org/dc/dcmitype/StillImage"/>
    <dc:date>2021-12-17T22:57:46.645246</dc:date>
    <dc:format>image/svg+xml</dc:format>
    <dc:creator>
     <cc:Agent>
      <dc:title>Matplotlib v3.4.2, https://matplotlib.org/</dc:title>
     </cc:Agent>
    </dc:creator>
   </cc:Work>
  </rdf:RDF>
 </metadata>
 <defs>
  <style type="text/css">*{stroke-linecap:butt;stroke-linejoin:round;}</style>
 </defs>
 <g id="figure_1">
  <g id="patch_1">
   <path d="M 0 576 
L 1008 576 
L 1008 0 
L 0 0 
z
" style="fill:none;"/>
  </g>
  <g id="axes_1">
   <g id="patch_2">
    <path d="M 513.12096 116.08704 
C 467.654459 116.08704 423.952256 133.912671 391.456567 165.712559 
C 358.960878 197.512448 340.193652 240.818647 339.209699 286.2745 
C 338.225747 331.730353 355.101432 375.80809 386.190626 408.984358 
C 417.27982 442.160626 460.16973 461.860657 505.593643 463.828101 
L 513.12096 290.03904 
L 513.12096 116.08704 
z
" style="fill:#092436;opacity:0.5;stroke:#092436;stroke-linejoin:miter;"/>
   </g>
   <g id="patch_3">
    <path d="M 505.593643 463.828101 
C 528.731903 464.830288 551.83902 461.201517 573.556287 453.155163 
C 595.273553 445.108809 615.166797 432.805734 632.06629 416.969363 
C 648.965782 401.132992 662.533667 382.079926 671.972149 360.930493 
C 681.410631 339.78106 686.531015 316.958078 687.032221 293.803548 
C 687.533427 270.649018 683.405435 247.625844 674.890973 226.087799 
C 666.37651 204.549753 653.645798 184.927424 637.447407 168.374612 
C 621.249015 151.8218 601.906783 138.669428 580.558041 129.690861 
C 559.209298 120.712294 536.280849 116.087031 513.120895 116.08704 
L 513.12096 290.03904 
L 505.593643 463.828101 
z
" style="fill:#4c2604;opacity:0.5;stroke:#4c2604;stroke-linejoin:miter;"/>
   </g>
   <g id="patch_4">
    <path d="M 516.6 112.608 
C 471.133499 112.608 427.431296 130.433631 394.935607 162.233519 
C 362.439918 194.033408 343.672692 237.339607 342.688739 282.79546 
C 341.704787 328.251313 358.580472 372.32905 389.669666 405.505318 
C 420.75886 438.681586 463.64877 458.381617 509.072683 460.349061 
L 516.6 286.56 
L 516.6 112.608 
z
" style="fill:#1f77b4;"/>
   </g>
   <g id="patch_5">
    <path d="M 509.072683 460.349061 
C 532.210943 461.351248 555.31806 457.722477 577.035327 449.676123 
C 598.752593 441.629769 618.645837 429.326694 635.54533 413.490323 
C 652.444822 397.653952 666.012707 378.600886 675.451189 357.451453 
C 684.889671 336.30202 690.010055 313.479038 690.511261 290.324508 
C 691.012467 267.169978 686.884475 244.146804 678.370013 222.608759 
C 669.85555 201.070713 657.124838 181.448384 640.926447 164.895572 
C 624.728055 148.34276 605.385823 135.190388 584.037081 126.211821 
C 562.688338 117.233254 539.759889 112.607991 516.599935 112.608 
L 516.6 286.56 
L 509.072683 460.349061 
z
" style="fill:#ff7f0e;"/>
   </g>
   <g id="matplotlib.axis_1"/>
   <g id="matplotlib.axis_2"/>
   <g id="text_1">
    <!-- Speakers with academic degree -->
    <g transform="translate(165.353863 285.178381)scale(0.1 -0.1)">
     <defs>
      <path d="M 3425 4513 
L 3425 3897 
Q 3066 4069 2747 4153 
Q 2428 4238 2131 4238 
Q 1616 4238 1336 4038 
Q 1056 3838 1056 3469 
Q 1056 3159 1242 3001 
Q 1428 2844 1947 2747 
L 2328 2669 
Q 3034 2534 3370 2195 
Q 3706 1856 3706 1288 
Q 3706 609 3251 259 
Q 2797 -91 1919 -91 
Q 1588 -91 1214 -16 
Q 841 59 441 206 
L 441 856 
Q 825 641 1194 531 
Q 1563 422 1919 422 
Q 2459 422 2753 634 
Q 3047 847 3047 1241 
Q 3047 1584 2836 1778 
Q 2625 1972 2144 2069 
L 1759 2144 
Q 1053 2284 737 2584 
Q 422 2884 422 3419 
Q 422 4038 858 4394 
Q 1294 4750 2059 4750 
Q 2388 4750 2728 4690 
Q 3069 4631 3425 4513 
z
" id="DejaVuSans-53" transform="scale(0.015625)"/>
      <path d="M 1159 525 
L 1159 -1331 
L 581 -1331 
L 581 3500 
L 1159 3500 
L 1159 2969 
Q 1341 3281 1617 3432 
Q 1894 3584 2278 3584 
Q 2916 3584 3314 3078 
Q 3713 2572 3713 1747 
Q 3713 922 3314 415 
Q 2916 -91 2278 -91 
Q 1894 -91 1617 61 
Q 1341 213 1159 525 
z
M 3116 1747 
Q 3116 2381 2855 2742 
Q 2594 3103 2138 3103 
Q 1681 3103 1420 2742 
Q 1159 2381 1159 1747 
Q 1159 1113 1420 752 
Q 1681 391 2138 391 
Q 2594 391 2855 752 
Q 3116 1113 3116 1747 
z
" id="DejaVuSans-70" transform="scale(0.015625)"/>
      <path d="M 3597 1894 
L 3597 1613 
L 953 1613 
Q 991 1019 1311 708 
Q 1631 397 2203 397 
Q 2534 397 2845 478 
Q 3156 559 3463 722 
L 3463 178 
Q 3153 47 2828 -22 
Q 2503 -91 2169 -91 
Q 1331 -91 842 396 
Q 353 884 353 1716 
Q 353 2575 817 3079 
Q 1281 3584 2069 3584 
Q 2775 3584 3186 3129 
Q 3597 2675 3597 1894 
z
M 3022 2063 
Q 3016 2534 2758 2815 
Q 2500 3097 2075 3097 
Q 1594 3097 1305 2825 
Q 1016 2553 972 2059 
L 3022 2063 
z
" id="DejaVuSans-65" transform="scale(0.015625)"/>
      <path d="M 2194 1759 
Q 1497 1759 1228 1600 
Q 959 1441 959 1056 
Q 959 750 1161 570 
Q 1363 391 1709 391 
Q 2188 391 2477 730 
Q 2766 1069 2766 1631 
L 2766 1759 
L 2194 1759 
z
M 3341 1997 
L 3341 0 
L 2766 0 
L 2766 531 
Q 2569 213 2275 61 
Q 1981 -91 1556 -91 
Q 1019 -91 701 211 
Q 384 513 384 1019 
Q 384 1609 779 1909 
Q 1175 2209 1959 2209 
L 2766 2209 
L 2766 2266 
Q 2766 2663 2505 2880 
Q 2244 3097 1772 3097 
Q 1472 3097 1187 3025 
Q 903 2953 641 2809 
L 641 3341 
Q 956 3463 1253 3523 
Q 1550 3584 1831 3584 
Q 2591 3584 2966 3190 
Q 3341 2797 3341 1997 
z
" id="DejaVuSans-61" transform="scale(0.015625)"/>
      <path d="M 581 4863 
L 1159 4863 
L 1159 1991 
L 2875 3500 
L 3609 3500 
L 1753 1863 
L 3688 0 
L 2938 0 
L 1159 1709 
L 1159 0 
L 581 0 
L 581 4863 
z
" id="DejaVuSans-6b" transform="scale(0.015625)"/>
      <path d="M 2631 2963 
Q 2534 3019 2420 3045 
Q 2306 3072 2169 3072 
Q 1681 3072 1420 2755 
Q 1159 2438 1159 1844 
L 1159 0 
L 581 0 
L 581 3500 
L 1159 3500 
L 1159 2956 
Q 1341 3275 1631 3429 
Q 1922 3584 2338 3584 
Q 2397 3584 2469 3576 
Q 2541 3569 2628 3553 
L 2631 2963 
z
" id="DejaVuSans-72" transform="scale(0.015625)"/>
      <path d="M 2834 3397 
L 2834 2853 
Q 2591 2978 2328 3040 
Q 2066 3103 1784 3103 
Q 1356 3103 1142 2972 
Q 928 2841 928 2578 
Q 928 2378 1081 2264 
Q 1234 2150 1697 2047 
L 1894 2003 
Q 2506 1872 2764 1633 
Q 3022 1394 3022 966 
Q 3022 478 2636 193 
Q 2250 -91 1575 -91 
Q 1294 -91 989 -36 
Q 684 19 347 128 
L 347 722 
Q 666 556 975 473 
Q 1284 391 1588 391 
Q 1994 391 2212 530 
Q 2431 669 2431 922 
Q 2431 1156 2273 1281 
Q 2116 1406 1581 1522 
L 1381 1569 
Q 847 1681 609 1914 
Q 372 2147 372 2553 
Q 372 3047 722 3315 
Q 1072 3584 1716 3584 
Q 2034 3584 2315 3537 
Q 2597 3491 2834 3397 
z
" id="DejaVuSans-73" transform="scale(0.015625)"/>
      <path id="DejaVuSans-20" transform="scale(0.015625)"/>
      <path d="M 269 3500 
L 844 3500 
L 1563 769 
L 2278 3500 
L 2956 3500 
L 3675 769 
L 4391 3500 
L 4966 3500 
L 4050 0 
L 3372 0 
L 2619 2869 
L 1863 0 
L 1184 0 
L 269 3500 
z
" id="DejaVuSans-77" transform="scale(0.015625)"/>
      <path d="M 603 3500 
L 1178 3500 
L 1178 0 
L 603 0 
L 603 3500 
z
M 603 4863 
L 1178 4863 
L 1178 4134 
L 603 4134 
L 603 4863 
z
" id="DejaVuSans-69" transform="scale(0.015625)"/>
      <path d="M 1172 4494 
L 1172 3500 
L 2356 3500 
L 2356 3053 
L 1172 3053 
L 1172 1153 
Q 1172 725 1289 603 
Q 1406 481 1766 481 
L 2356 481 
L 2356 0 
L 1766 0 
Q 1100 0 847 248 
Q 594 497 594 1153 
L 594 3053 
L 172 3053 
L 172 3500 
L 594 3500 
L 594 4494 
L 1172 4494 
z
" id="DejaVuSans-74" transform="scale(0.015625)"/>
      <path d="M 3513 2113 
L 3513 0 
L 2938 0 
L 2938 2094 
Q 2938 2591 2744 2837 
Q 2550 3084 2163 3084 
Q 1697 3084 1428 2787 
Q 1159 2491 1159 1978 
L 1159 0 
L 581 0 
L 581 4863 
L 1159 4863 
L 1159 2956 
Q 1366 3272 1645 3428 
Q 1925 3584 2291 3584 
Q 2894 3584 3203 3211 
Q 3513 2838 3513 2113 
z
" id="DejaVuSans-68" transform="scale(0.015625)"/>
      <path d="M 3122 3366 
L 3122 2828 
Q 2878 2963 2633 3030 
Q 2388 3097 2138 3097 
Q 1578 3097 1268 2742 
Q 959 2388 959 1747 
Q 959 1106 1268 751 
Q 1578 397 2138 397 
Q 2388 397 2633 464 
Q 2878 531 3122 666 
L 3122 134 
Q 2881 22 2623 -34 
Q 2366 -91 2075 -91 
Q 1284 -91 818 406 
Q 353 903 353 1747 
Q 353 2603 823 3093 
Q 1294 3584 2113 3584 
Q 2378 3584 2631 3529 
Q 2884 3475 3122 3366 
z
" id="DejaVuSans-63" transform="scale(0.015625)"/>
      <path d="M 2906 2969 
L 2906 4863 
L 3481 4863 
L 3481 0 
L 2906 0 
L 2906 525 
Q 2725 213 2448 61 
Q 2172 -91 1784 -91 
Q 1150 -91 751 415 
Q 353 922 353 1747 
Q 353 2572 751 3078 
Q 1150 3584 1784 3584 
Q 2172 3584 2448 3432 
Q 2725 3281 2906 2969 
z
M 947 1747 
Q 947 1113 1208 752 
Q 1469 391 1925 391 
Q 2381 391 2643 752 
Q 2906 1113 2906 1747 
Q 2906 2381 2643 2742 
Q 2381 3103 1925 3103 
Q 1469 3103 1208 2742 
Q 947 2381 947 1747 
z
" id="DejaVuSans-64" transform="scale(0.015625)"/>
      <path d="M 3328 2828 
Q 3544 3216 3844 3400 
Q 4144 3584 4550 3584 
Q 5097 3584 5394 3201 
Q 5691 2819 5691 2113 
L 5691 0 
L 5113 0 
L 5113 2094 
Q 5113 2597 4934 2840 
Q 4756 3084 4391 3084 
Q 3944 3084 3684 2787 
Q 3425 2491 3425 1978 
L 3425 0 
L 2847 0 
L 2847 2094 
Q 2847 2600 2669 2842 
Q 2491 3084 2119 3084 
Q 1678 3084 1418 2786 
Q 1159 2488 1159 1978 
L 1159 0 
L 581 0 
L 581 3500 
L 1159 3500 
L 1159 2956 
Q 1356 3278 1631 3431 
Q 1906 3584 2284 3584 
Q 2666 3584 2933 3390 
Q 3200 3197 3328 2828 
z
" id="DejaVuSans-6d" transform="scale(0.015625)"/>
      <path d="M 2906 1791 
Q 2906 2416 2648 2759 
Q 2391 3103 1925 3103 
Q 1463 3103 1205 2759 
Q 947 2416 947 1791 
Q 947 1169 1205 825 
Q 1463 481 1925 481 
Q 2391 481 2648 825 
Q 2906 1169 2906 1791 
z
M 3481 434 
Q 3481 -459 3084 -895 
Q 2688 -1331 1869 -1331 
Q 1566 -1331 1297 -1286 
Q 1028 -1241 775 -1147 
L 775 -588 
Q 1028 -725 1275 -790 
Q 1522 -856 1778 -856 
Q 2344 -856 2625 -561 
Q 2906 -266 2906 331 
L 2906 616 
Q 2728 306 2450 153 
Q 2172 0 1784 0 
Q 1141 0 747 490 
Q 353 981 353 1791 
Q 353 2603 747 3093 
Q 1141 3584 1784 3584 
Q 2172 3584 2450 3431 
Q 2728 3278 2906 2969 
L 2906 3500 
L 3481 3500 
L 3481 434 
z
" id="DejaVuSans-67" transform="scale(0.015625)"/>
     </defs>
     <use xlink:href="#DejaVuSans-53"/>
     <use x="63.476562" xlink:href="#DejaVuSans-70"/>
     <use x="126.953125" xlink:href="#DejaVuSans-65"/>
     <use x="188.476562" xlink:href="#DejaVuSans-61"/>
     <use x="249.755859" xlink:href="#DejaVuSans-6b"/>
     <use x="304.041016" xlink:href="#DejaVuSans-65"/>
     <use x="365.564453" xlink:href="#DejaVuSans-72"/>
     <use x="406.677734" xlink:href="#DejaVuSans-73"/>
     <use x="458.777344" xlink:href="#DejaVuSans-20"/>
     <use x="490.564453" xlink:href="#DejaVuSans-77"/>
     <use x="572.351562" xlink:href="#DejaVuSans-69"/>
     <use x="600.134766" xlink:href="#DejaVuSans-74"/>
     <use x="639.34375" xlink:href="#DejaVuSans-68"/>
     <use x="702.722656" xlink:href="#DejaVuSans-20"/>
     <use x="734.509766" xlink:href="#DejaVuSans-61"/>
     <use x="795.789062" xlink:href="#DejaVuSans-63"/>
     <use x="850.769531" xlink:href="#DejaVuSans-61"/>
     <use x="912.048828" xlink:href="#DejaVuSans-64"/>
     <use x="975.525391" xlink:href="#DejaVuSans-65"/>
     <use x="1037.048828" xlink:href="#DejaVuSans-6d"/>
     <use x="1134.460938" xlink:href="#DejaVuSans-69"/>
     <use x="1162.244141" xlink:href="#DejaVuSans-63"/>
     <use x="1217.224609" xlink:href="#DejaVuSans-20"/>
     <use x="1249.011719" xlink:href="#DejaVuSans-64"/>
     <use x="1312.488281" xlink:href="#DejaVuSans-65"/>
     <use x="1374.011719" xlink:href="#DejaVuSans-67"/>
     <use x="1437.488281" xlink:href="#DejaVuSans-72"/>
     <use x="1476.351562" xlink:href="#DejaVuSans-65"/>
     <use x="1537.875" xlink:href="#DejaVuSans-65"/>
    </g>
   </g>
   <g id="text_2">
    <!-- 49.3% -->
    <g transform="translate(396.36965 287.060651)scale(0.1 -0.1)">
     <defs>
      <path d="M 2419 4116 
L 825 1625 
L 2419 1625 
L 2419 4116 
z
M 2253 4666 
L 3047 4666 
L 3047 1625 
L 3713 1625 
L 3713 1100 
L 3047 1100 
L 3047 0 
L 2419 0 
L 2419 1100 
L 313 1100 
L 313 1709 
L 2253 4666 
z
" id="DejaVuSans-34" transform="scale(0.015625)"/>
      <path d="M 703 97 
L 703 672 
Q 941 559 1184 500 
Q 1428 441 1663 441 
Q 2288 441 2617 861 
Q 2947 1281 2994 2138 
Q 2813 1869 2534 1725 
Q 2256 1581 1919 1581 
Q 1219 1581 811 2004 
Q 403 2428 403 3163 
Q 403 3881 828 4315 
Q 1253 4750 1959 4750 
Q 2769 4750 3195 4129 
Q 3622 3509 3622 2328 
Q 3622 1225 3098 567 
Q 2575 -91 1691 -91 
Q 1453 -91 1209 -44 
Q 966 3 703 97 
z
M 1959 2075 
Q 2384 2075 2632 2365 
Q 2881 2656 2881 3163 
Q 2881 3666 2632 3958 
Q 2384 4250 1959 4250 
Q 1534 4250 1286 3958 
Q 1038 3666 1038 3163 
Q 1038 2656 1286 2365 
Q 1534 2075 1959 2075 
z
" id="DejaVuSans-39" transform="scale(0.015625)"/>
      <path d="M 684 794 
L 1344 794 
L 1344 0 
L 684 0 
L 684 794 
z
" id="DejaVuSans-2e" transform="scale(0.015625)"/>
      <path d="M 2597 2516 
Q 3050 2419 3304 2112 
Q 3559 1806 3559 1356 
Q 3559 666 3084 287 
Q 2609 -91 1734 -91 
Q 1441 -91 1130 -33 
Q 819 25 488 141 
L 488 750 
Q 750 597 1062 519 
Q 1375 441 1716 441 
Q 2309 441 2620 675 
Q 2931 909 2931 1356 
Q 2931 1769 2642 2001 
Q 2353 2234 1838 2234 
L 1294 2234 
L 1294 2753 
L 1863 2753 
Q 2328 2753 2575 2939 
Q 2822 3125 2822 3475 
Q 2822 3834 2567 4026 
Q 2313 4219 1838 4219 
Q 1578 4219 1281 4162 
Q 984 4106 628 3988 
L 628 4550 
Q 988 4650 1302 4700 
Q 1616 4750 1894 4750 
Q 2613 4750 3031 4423 
Q 3450 4097 3450 3541 
Q 3450 3153 3228 2886 
Q 3006 2619 2597 2516 
z
" id="DejaVuSans-33" transform="scale(0.015625)"/>
      <path d="M 4653 2053 
Q 4381 2053 4226 1822 
Q 4072 1591 4072 1178 
Q 4072 772 4226 539 
Q 4381 306 4653 306 
Q 4919 306 5073 539 
Q 5228 772 5228 1178 
Q 5228 1588 5073 1820 
Q 4919 2053 4653 2053 
z
M 4653 2450 
Q 5147 2450 5437 2106 
Q 5728 1763 5728 1178 
Q 5728 594 5436 251 
Q 5144 -91 4653 -91 
Q 4153 -91 3862 251 
Q 3572 594 3572 1178 
Q 3572 1766 3864 2108 
Q 4156 2450 4653 2450 
z
M 1428 4353 
Q 1159 4353 1004 4120 
Q 850 3888 850 3481 
Q 850 3069 1003 2837 
Q 1156 2606 1428 2606 
Q 1700 2606 1854 2837 
Q 2009 3069 2009 3481 
Q 2009 3884 1853 4118 
Q 1697 4353 1428 4353 
z
M 4250 4750 
L 4750 4750 
L 1831 -91 
L 1331 -91 
L 4250 4750 
z
M 1428 4750 
Q 1922 4750 2215 4408 
Q 2509 4066 2509 3481 
Q 2509 2891 2217 2550 
Q 1925 2209 1428 2209 
Q 931 2209 642 2551 
Q 353 2894 353 3481 
Q 353 4063 643 4406 
Q 934 4750 1428 4750 
z
" id="DejaVuSans-25" transform="scale(0.015625)"/>
     </defs>
     <use xlink:href="#DejaVuSans-34"/>
     <use x="63.623047" xlink:href="#DejaVuSans-39"/>
     <use x="127.246094" xlink:href="#DejaVuSans-2e"/>
     <use x="159.033203" xlink:href="#DejaVuSans-33"/>
     <use x="222.65625" xlink:href="#DejaVuSans-25"/>
    </g>
   </g>
   <g id="text_3">
    <!-- Speakers with no academic degree -->
    <g transform="translate(707.902387 293.460333)scale(0.1 -0.1)">
     <defs>
      <path d="M 3513 2113 
L 3513 0 
L 2938 0 
L 2938 2094 
Q 2938 2591 2744 2837 
Q 2550 3084 2163 3084 
Q 1697 3084 1428 2787 
Q 1159 2491 1159 1978 
L 1159 0 
L 581 0 
L 581 3500 
L 1159 3500 
L 1159 2956 
Q 1366 3272 1645 3428 
Q 1925 3584 2291 3584 
Q 2894 3584 3203 3211 
Q 3513 2838 3513 2113 
z
" id="DejaVuSans-6e" transform="scale(0.015625)"/>
      <path d="M 1959 3097 
Q 1497 3097 1228 2736 
Q 959 2375 959 1747 
Q 959 1119 1226 758 
Q 1494 397 1959 397 
Q 2419 397 2687 759 
Q 2956 1122 2956 1747 
Q 2956 2369 2687 2733 
Q 2419 3097 1959 3097 
z
M 1959 3584 
Q 2709 3584 3137 3096 
Q 3566 2609 3566 1747 
Q 3566 888 3137 398 
Q 2709 -91 1959 -91 
Q 1206 -91 779 398 
Q 353 888 353 1747 
Q 353 2609 779 3096 
Q 1206 3584 1959 3584 
z
" id="DejaVuSans-6f" transform="scale(0.015625)"/>
     </defs>
     <use xlink:href="#DejaVuSans-53"/>
     <use x="63.476562" xlink:href="#DejaVuSans-70"/>
     <use x="126.953125" xlink:href="#DejaVuSans-65"/>
     <use x="188.476562" xlink:href="#DejaVuSans-61"/>
     <use x="249.755859" xlink:href="#DejaVuSans-6b"/>
     <use x="304.041016" xlink:href="#DejaVuSans-65"/>
     <use x="365.564453" xlink:href="#DejaVuSans-72"/>
     <use x="406.677734" xlink:href="#DejaVuSans-73"/>
     <use x="458.777344" xlink:href="#DejaVuSans-20"/>
     <use x="490.564453" xlink:href="#DejaVuSans-77"/>
     <use x="572.351562" xlink:href="#DejaVuSans-69"/>
     <use x="600.134766" xlink:href="#DejaVuSans-74"/>
     <use x="639.34375" xlink:href="#DejaVuSans-68"/>
     <use x="702.722656" xlink:href="#DejaVuSans-20"/>
     <use x="734.509766" xlink:href="#DejaVuSans-6e"/>
     <use x="797.888672" xlink:href="#DejaVuSans-6f"/>
     <use x="859.070312" xlink:href="#DejaVuSans-20"/>
     <use x="890.857422" xlink:href="#DejaVuSans-61"/>
     <use x="952.136719" xlink:href="#DejaVuSans-63"/>
     <use x="1007.117188" xlink:href="#DejaVuSans-61"/>
     <use x="1068.396484" xlink:href="#DejaVuSans-64"/>
     <use x="1131.873047" xlink:href="#DejaVuSans-65"/>
     <use x="1193.396484" xlink:href="#DejaVuSans-6d"/>
     <use x="1290.808594" xlink:href="#DejaVuSans-69"/>
     <use x="1318.591797" xlink:href="#DejaVuSans-63"/>
     <use x="1373.572266" xlink:href="#DejaVuSans-20"/>
     <use x="1405.359375" xlink:href="#DejaVuSans-64"/>
     <use x="1468.835938" xlink:href="#DejaVuSans-65"/>
     <use x="1530.359375" xlink:href="#DejaVuSans-67"/>
     <use x="1593.835938" xlink:href="#DejaVuSans-72"/>
     <use x="1632.699219" xlink:href="#DejaVuSans-65"/>
     <use x="1694.222656" xlink:href="#DejaVuSans-65"/>
    </g>
   </g>
   <g id="text_4">
    <!-- 50.7% -->
    <g transform="translate(605.063163 291.57808)scale(0.1 -0.1)">
     <defs>
      <path d="M 691 4666 
L 3169 4666 
L 3169 4134 
L 1269 4134 
L 1269 2991 
Q 1406 3038 1543 3061 
Q 1681 3084 1819 3084 
Q 2600 3084 3056 2656 
Q 3513 2228 3513 1497 
Q 3513 744 3044 326 
Q 2575 -91 1722 -91 
Q 1428 -91 1123 -41 
Q 819 9 494 109 
L 494 744 
Q 775 591 1075 516 
Q 1375 441 1709 441 
Q 2250 441 2565 725 
Q 2881 1009 2881 1497 
Q 2881 1984 2565 2268 
Q 2250 2553 1709 2553 
Q 1456 2553 1204 2497 
Q 953 2441 691 2322 
L 691 4666 
z
" id="DejaVuSans-35" transform="scale(0.015625)"/>
      <path d="M 2034 4250 
Q 1547 4250 1301 3770 
Q 1056 3291 1056 2328 
Q 1056 1369 1301 889 
Q 1547 409 2034 409 
Q 2525 409 2770 889 
Q 3016 1369 3016 2328 
Q 3016 3291 2770 3770 
Q 2525 4250 2034 4250 
z
M 2034 4750 
Q 2819 4750 3233 4129 
Q 3647 3509 3647 2328 
Q 3647 1150 3233 529 
Q 2819 -91 2034 -91 
Q 1250 -91 836 529 
Q 422 1150 422 2328 
Q 422 3509 836 4129 
Q 1250 4750 2034 4750 
z
" id="DejaVuSans-30" transform="scale(0.015625)"/>
      <path d="M 525 4666 
L 3525 4666 
L 3525 4397 
L 1831 0 
L 1172 0 
L 2766 4134 
L 525 4134 
L 525 4666 
z
" id="DejaVuSans-37" transform="scale(0.015625)"/>
     </defs>
     <use xlink:href="#DejaVuSans-35"/>
     <use x="63.623047" xlink:href="#DejaVuSans-30"/>
     <use x="127.246094" xlink:href="#DejaVuSans-2e"/>
     <use x="159.033203" xlink:href="#DejaVuSans-37"/>
     <use x="222.65625" xlink:href="#DejaVuSans-25"/>
    </g>
   </g>
   <g id="text_5">
    <!-- Ratios of environmental speakers depending on academic degree -->
    <g transform="translate(319.189687 63.12)scale(0.12 -0.12)">
     <defs>
      <path d="M 2841 2188 
Q 3044 2119 3236 1894 
Q 3428 1669 3622 1275 
L 4263 0 
L 3584 0 
L 2988 1197 
Q 2756 1666 2539 1819 
Q 2322 1972 1947 1972 
L 1259 1972 
L 1259 0 
L 628 0 
L 628 4666 
L 2053 4666 
Q 2853 4666 3247 4331 
Q 3641 3997 3641 3322 
Q 3641 2881 3436 2590 
Q 3231 2300 2841 2188 
z
M 1259 4147 
L 1259 2491 
L 2053 2491 
Q 2509 2491 2742 2702 
Q 2975 2913 2975 3322 
Q 2975 3731 2742 3939 
Q 2509 4147 2053 4147 
L 1259 4147 
z
" id="DejaVuSans-52" transform="scale(0.015625)"/>
      <path d="M 2375 4863 
L 2375 4384 
L 1825 4384 
Q 1516 4384 1395 4259 
Q 1275 4134 1275 3809 
L 1275 3500 
L 2222 3500 
L 2222 3053 
L 1275 3053 
L 1275 0 
L 697 0 
L 697 3053 
L 147 3053 
L 147 3500 
L 697 3500 
L 697 3744 
Q 697 4328 969 4595 
Q 1241 4863 1831 4863 
L 2375 4863 
z
" id="DejaVuSans-66" transform="scale(0.015625)"/>
      <path d="M 191 3500 
L 800 3500 
L 1894 563 
L 2988 3500 
L 3597 3500 
L 2284 0 
L 1503 0 
L 191 3500 
z
" id="DejaVuSans-76" transform="scale(0.015625)"/>
      <path d="M 603 4863 
L 1178 4863 
L 1178 0 
L 603 0 
L 603 4863 
z
" id="DejaVuSans-6c" transform="scale(0.015625)"/>
     </defs>
     <use xlink:href="#DejaVuSans-52"/>
     <use x="67.232422" xlink:href="#DejaVuSans-61"/>
     <use x="128.511719" xlink:href="#DejaVuSans-74"/>
     <use x="167.720703" xlink:href="#DejaVuSans-69"/>
     <use x="195.503906" xlink:href="#DejaVuSans-6f"/>
     <use x="256.685547" xlink:href="#DejaVuSans-73"/>
     <use x="308.785156" xlink:href="#DejaVuSans-20"/>
     <use x="340.572266" xlink:href="#DejaVuSans-6f"/>
     <use x="401.753906" xlink:href="#DejaVuSans-66"/>
     <use x="436.958984" xlink:href="#DejaVuSans-20"/>
     <use x="468.746094" xlink:href="#DejaVuSans-65"/>
     <use x="530.269531" xlink:href="#DejaVuSans-6e"/>
     <use x="593.648438" xlink:href="#DejaVuSans-76"/>
     <use x="652.828125" xlink:href="#DejaVuSans-69"/>
     <use x="680.611328" xlink:href="#DejaVuSans-72"/>
     <use x="719.474609" xlink:href="#DejaVuSans-6f"/>
     <use x="780.65625" xlink:href="#DejaVuSans-6e"/>
     <use x="844.035156" xlink:href="#DejaVuSans-6d"/>
     <use x="941.447266" xlink:href="#DejaVuSans-65"/>
     <use x="1002.970703" xlink:href="#DejaVuSans-6e"/>
     <use x="1066.349609" xlink:href="#DejaVuSans-74"/>
     <use x="1105.558594" xlink:href="#DejaVuSans-61"/>
     <use x="1166.837891" xlink:href="#DejaVuSans-6c"/>
     <use x="1194.621094" xlink:href="#DejaVuSans-20"/>
     <use x="1226.408203" xlink:href="#DejaVuSans-73"/>
     <use x="1278.507812" xlink:href="#DejaVuSans-70"/>
     <use x="1341.984375" xlink:href="#DejaVuSans-65"/>
     <use x="1403.507812" xlink:href="#DejaVuSans-61"/>
     <use x="1464.787109" xlink:href="#DejaVuSans-6b"/>
     <use x="1519.072266" xlink:href="#DejaVuSans-65"/>
     <use x="1580.595703" xlink:href="#DejaVuSans-72"/>
     <use x="1621.708984" xlink:href="#DejaVuSans-73"/>
     <use x="1673.808594" xlink:href="#DejaVuSans-20"/>
     <use x="1705.595703" xlink:href="#DejaVuSans-64"/>
     <use x="1769.072266" xlink:href="#DejaVuSans-65"/>
     <use x="1830.595703" xlink:href="#DejaVuSans-70"/>
     <use x="1894.072266" xlink:href="#DejaVuSans-65"/>
     <use x="1955.595703" xlink:href="#DejaVuSans-6e"/>
     <use x="2018.974609" xlink:href="#DejaVuSans-64"/>
     <use x="2082.451172" xlink:href="#DejaVuSans-69"/>
     <use x="2110.234375" xlink:href="#DejaVuSans-6e"/>
     <use x="2173.613281" xlink:href="#DejaVuSans-67"/>
     <use x="2237.089844" xlink:href="#DejaVuSans-20"/>
     <use x="2268.876953" xlink:href="#DejaVuSans-6f"/>
     <use x="2330.058594" xlink:href="#DejaVuSans-6e"/>
     <use x="2393.4375" xlink:href="#DejaVuSans-20"/>
     <use x="2425.224609" xlink:href="#DejaVuSans-61"/>
     <use x="2486.503906" xlink:href="#DejaVuSans-63"/>
     <use x="2541.484375" xlink:href="#DejaVuSans-61"/>
     <use x="2602.763672" xlink:href="#DejaVuSans-64"/>
     <use x="2666.240234" xlink:href="#DejaVuSans-65"/>
     <use x="2727.763672" xlink:href="#DejaVuSans-6d"/>
     <use x="2825.175781" xlink:href="#DejaVuSans-69"/>
     <use x="2852.958984" xlink:href="#DejaVuSans-63"/>
     <use x="2907.939453" xlink:href="#DejaVuSans-20"/>
     <use x="2939.726562" xlink:href="#DejaVuSans-64"/>
     <use x="3003.203125" xlink:href="#DejaVuSans-65"/>
     <use x="3064.726562" xlink:href="#DejaVuSans-67"/>
     <use x="3128.203125" xlink:href="#DejaVuSans-72"/>
     <use x="3167.066406" xlink:href="#DejaVuSans-65"/>
     <use x="3228.589844" xlink:href="#DejaVuSans-65"/>
    </g>
   </g>
  </g>
 </g>
</svg>
