<?xml version="1.0" encoding="utf-8" standalone="no"?>
<!DOCTYPE svg PUBLIC "-//W3C//DTD SVG 1.1//EN"
  "http://www.w3.org/Graphics/SVG/1.1/DTD/svg11.dtd">
<svg height="576pt" version="1.1" viewBox="0 0 1008 576" width="1008pt" xmlns="http://www.w3.org/2000/svg" xmlns:xlink="http://www.w3.org/1999/xlink">
 <metadata>
  <rdf:RDF xmlns:cc="http://creativecommons.org/ns#" xmlns:dc="http://purl.org/dc/elements/1.1/" xmlns:rdf="http://www.w3.org/1999/02/22-rdf-syntax-ns#">
   <cc:Work>
    <dc:type rdf:resource="http://purl.org/dc/dcmitype/StillImage"/>
    <dc:date>2021-12-17T22:59:12.273814</dc:date>
    <dc:format>image/svg+xml</dc:format>
    <dc:creator>
     <cc:Agent>
      <dc:title>Matplotlib v3.4.2, https://matplotlib.org/</dc:title>
     </cc:Agent>
    </dc:creator>
   </cc:Work>
  </rdf:RDF>
 </metadata>
 <defs>
  <style type="text/css">*{stroke-linecap:butt;stroke-linejoin:round;}</style>
 </defs>
 <g id="figure_1">
  <g id="patch_1">
   <path d="M 0 576 
L 1008 576 
L 1008 0 
L 0 0 
z
" style="fill:none;"/>
  </g>
  <g id="axes_1">
   <g id="patch_2">
    <path d="M 513.12096 116.08704 
C 482.402468 116.08704 452.225205 124.223989 425.670736 139.666979 
C 399.116267 155.109969 377.120319 177.314821 361.929017 204.014074 
L 513.12096 290.03904 
L 513.12096 116.08704 
z
" style="fill:#092436;opacity:0.5;stroke:#092436;stroke-linejoin:miter;"/>
   </g>
   <g id="patch_3">
    <path d="M 361.929017 204.014074 
C 347.527779 229.324763 339.710272 257.85118 339.196079 286.967538 
C 338.681886 316.083895 345.487283 344.868552 358.98585 370.67195 
L 513.12096 290.03904 
L 361.929017 204.014074 
z
" style="fill:#4c2604;opacity:0.5;stroke:#4c2604;stroke-linejoin:miter;"/>
   </g>
   <g id="patch_4">
    <path d="M 358.98585 370.67195 
C 371.595478 394.776083 389.685264 415.589584 411.797195 431.434913 
C 433.909127 447.280242 459.432739 457.719943 486.310866 461.91259 
L 513.12096 290.03904 
L 358.98585 370.67195 
z
" style="fill:#0d300d;opacity:0.5;stroke:#0d300d;stroke-linejoin:miter;"/>
   </g>
   <g id="patch_5">
    <path d="M 486.310866 461.91259 
C 507.687062 465.247005 529.498919 464.564456 550.624811 459.900041 
C 571.750703 455.235625 591.822197 446.67069 609.807161 434.645668 
L 513.12096 290.03904 
L 486.310866 461.91259 
z
" style="fill:#400c0c;opacity:0.5;stroke:#400c0c;stroke-linejoin:miter;"/>
   </g>
   <g id="patch_6">
    <path d="M 609.807161 434.645668 
C 625.384817 424.230209 639.177624 411.36571 650.651483 396.550323 
C 662.125343 381.734936 671.130216 365.162394 677.317408 347.474438 
L 513.12096 290.03904 
L 609.807161 434.645668 
z
" style="fill:#2c1f39;opacity:0.5;stroke:#2c1f39;stroke-linejoin:miter;"/>
   </g>
   <g id="patch_7">
    <path d="M 677.317408 347.474438 
C 682.776367 331.868351 685.982627 315.563394 686.839294 299.052297 
C 687.695961 282.5412 686.194318 265.991977 682.379745 249.904739 
L 513.12096 290.03904 
L 677.317408 347.474438 
z
" style="fill:#2a1a16;opacity:0.5;stroke:#2a1a16;stroke-linejoin:miter;"/>
   </g>
   <g id="patch_8">
    <path d="M 682.379745 249.904739 
C 679.59976 238.180682 675.609147 226.777129 670.472221 215.877871 
C 665.335295 204.978613 659.079803 194.642519 651.806564 185.036176 
L 513.12096 290.03904 
L 682.379745 249.904739 
z
" style="fill:#44243a;opacity:0.5;stroke:#44243a;stroke-linejoin:miter;"/>
   </g>
   <g id="patch_9">
    <path d="M 651.806564 185.036176 
C 644.672659 175.613862 636.597059 166.943046 627.705002 159.158195 
C 618.812944 151.373343 609.150633 144.514909 598.867913 138.689252 
L 513.12096 290.03904 
L 651.806564 185.036176 
z
" style="fill:#262626;opacity:0.5;stroke:#262626;stroke-linejoin:miter;"/>
   </g>
   <g id="patch_10">
    <path d="M 598.867913 138.689252 
C 592.276065 134.954652 585.447268 131.654687 578.42516 128.810445 
C 571.403052 125.966203 564.202623 123.583756 556.869885 121.678327 
L 513.12096 290.03904 
L 598.867913 138.689252 
z
" style="fill:#38390a;opacity:0.5;stroke:#38390a;stroke-linejoin:miter;"/>
   </g>
   <g id="patch_11">
    <path d="M 556.869885 121.678327 
C 549.733765 119.823989 542.486962 118.425232 535.173338 117.490522 
C 527.859714 116.555813 520.494055 116.087039 513.120944 116.08704 
L 513.12096 290.03904 
L 556.869885 121.678327 
z
" style="fill:#07393e;opacity:0.5;stroke:#07393e;stroke-linejoin:miter;"/>
   </g>
   <g id="patch_12">
    <path d="M 516.6 112.608 
C 485.881508 112.608 455.704245 120.744949 429.149776 136.187939 
C 402.595307 151.630929 380.599359 173.835781 365.408057 200.535034 
L 516.6 286.56 
L 516.6 112.608 
z
" style="fill:#1f77b4;"/>
   </g>
   <g id="patch_13">
    <path d="M 365.408057 200.535034 
C 351.006819 225.845723 343.189312 254.37214 342.675119 283.488498 
C 342.160926 312.604855 348.966323 341.389512 362.46489 367.19291 
L 516.6 286.56 
L 365.408057 200.535034 
z
" style="fill:#ff7f0e;"/>
   </g>
   <g id="patch_14">
    <path d="M 362.46489 367.19291 
C 375.074518 391.297043 393.164304 412.110544 415.276235 427.955873 
C 437.388167 443.801202 462.911779 454.240903 489.789906 458.43355 
L 516.6 286.56 
L 362.46489 367.19291 
z
" style="fill:#2ca02c;"/>
   </g>
   <g id="patch_15">
    <path d="M 489.789906 458.43355 
C 511.166102 461.767965 532.977959 461.085416 554.103851 456.421001 
C 575.229743 451.756585 595.301237 443.19165 613.286201 431.166628 
L 516.6 286.56 
L 489.789906 458.43355 
z
" style="fill:#d62728;"/>
   </g>
   <g id="patch_16">
    <path d="M 613.286201 431.166628 
C 628.863857 420.751169 642.656664 407.88667 654.130523 393.071283 
C 665.604383 378.255896 674.609256 361.683354 680.796448 343.995398 
L 516.6 286.56 
L 613.286201 431.166628 
z
" style="fill:#9467bd;"/>
   </g>
   <g id="patch_17">
    <path d="M 680.796448 343.995398 
C 686.255407 328.389311 689.461667 312.084354 690.318334 295.573257 
C 691.175001 279.06216 689.673358 262.512937 685.858785 246.425699 
L 516.6 286.56 
L 680.796448 343.995398 
z
" style="fill:#8c564b;"/>
   </g>
   <g id="patch_18">
    <path d="M 685.858785 246.425699 
C 683.0788 234.701642 679.088187 223.298089 673.951261 212.398831 
C 668.814335 201.499573 662.558843 191.163479 655.285604 181.557136 
L 516.6 286.56 
L 685.858785 246.425699 
z
" style="fill:#e377c2;"/>
   </g>
   <g id="patch_19">
    <path d="M 655.285604 181.557136 
C 648.151699 172.134822 640.076099 163.464006 631.184042 155.679155 
C 622.291984 147.894303 612.629673 141.035869 602.346953 135.210212 
L 516.6 286.56 
L 655.285604 181.557136 
z
" style="fill:#7f7f7f;"/>
   </g>
   <g id="patch_20">
    <path d="M 602.346953 135.210212 
C 595.755105 131.475612 588.926308 128.175647 581.9042 125.331405 
C 574.882092 122.487163 567.681663 120.104716 560.348925 118.199287 
L 516.6 286.56 
L 602.346953 135.210212 
z
" style="fill:#bcbd22;"/>
   </g>
   <g id="patch_21">
    <path d="M 560.348925 118.199287 
C 553.212805 116.344949 545.966002 114.946192 538.652378 114.011482 
C 531.338754 113.076773 523.973095 112.607999 516.599984 112.608 
L 516.6 286.56 
L 560.348925 118.199287 
z
" style="fill:#17becf;"/>
   </g>
   <g id="matplotlib.axis_1"/>
   <g id="matplotlib.axis_2"/>
   <g id="text_1">
    <!-- Ireland -->
    <g transform="translate(385.823504 123.910108)scale(0.1 -0.1)">
     <defs>
      <path d="M 628 4666 
L 1259 4666 
L 1259 0 
L 628 0 
L 628 4666 
z
" id="DejaVuSans-49" transform="scale(0.015625)"/>
      <path d="M 2631 2963 
Q 2534 3019 2420 3045 
Q 2306 3072 2169 3072 
Q 1681 3072 1420 2755 
Q 1159 2438 1159 1844 
L 1159 0 
L 581 0 
L 581 3500 
L 1159 3500 
L 1159 2956 
Q 1341 3275 1631 3429 
Q 1922 3584 2338 3584 
Q 2397 3584 2469 3576 
Q 2541 3569 2628 3553 
L 2631 2963 
z
" id="DejaVuSans-72" transform="scale(0.015625)"/>
      <path d="M 3597 1894 
L 3597 1613 
L 953 1613 
Q 991 1019 1311 708 
Q 1631 397 2203 397 
Q 2534 397 2845 478 
Q 3156 559 3463 722 
L 3463 178 
Q 3153 47 2828 -22 
Q 2503 -91 2169 -91 
Q 1331 -91 842 396 
Q 353 884 353 1716 
Q 353 2575 817 3079 
Q 1281 3584 2069 3584 
Q 2775 3584 3186 3129 
Q 3597 2675 3597 1894 
z
M 3022 2063 
Q 3016 2534 2758 2815 
Q 2500 3097 2075 3097 
Q 1594 3097 1305 2825 
Q 1016 2553 972 2059 
L 3022 2063 
z
" id="DejaVuSans-65" transform="scale(0.015625)"/>
      <path d="M 603 4863 
L 1178 4863 
L 1178 0 
L 603 0 
L 603 4863 
z
" id="DejaVuSans-6c" transform="scale(0.015625)"/>
      <path d="M 2194 1759 
Q 1497 1759 1228 1600 
Q 959 1441 959 1056 
Q 959 750 1161 570 
Q 1363 391 1709 391 
Q 2188 391 2477 730 
Q 2766 1069 2766 1631 
L 2766 1759 
L 2194 1759 
z
M 3341 1997 
L 3341 0 
L 2766 0 
L 2766 531 
Q 2569 213 2275 61 
Q 1981 -91 1556 -91 
Q 1019 -91 701 211 
Q 384 513 384 1019 
Q 384 1609 779 1909 
Q 1175 2209 1959 2209 
L 2766 2209 
L 2766 2266 
Q 2766 2663 2505 2880 
Q 2244 3097 1772 3097 
Q 1472 3097 1187 3025 
Q 903 2953 641 2809 
L 641 3341 
Q 956 3463 1253 3523 
Q 1550 3584 1831 3584 
Q 2591 3584 2966 3190 
Q 3341 2797 3341 1997 
z
" id="DejaVuSans-61" transform="scale(0.015625)"/>
      <path d="M 3513 2113 
L 3513 0 
L 2938 0 
L 2938 2094 
Q 2938 2591 2744 2837 
Q 2550 3084 2163 3084 
Q 1697 3084 1428 2787 
Q 1159 2491 1159 1978 
L 1159 0 
L 581 0 
L 581 3500 
L 1159 3500 
L 1159 2956 
Q 1366 3272 1645 3428 
Q 1925 3584 2291 3584 
Q 2894 3584 3203 3211 
Q 3513 2838 3513 2113 
z
" id="DejaVuSans-6e" transform="scale(0.015625)"/>
      <path d="M 2906 2969 
L 2906 4863 
L 3481 4863 
L 3481 0 
L 2906 0 
L 2906 525 
Q 2725 213 2448 61 
Q 2172 -91 1784 -91 
Q 1150 -91 751 415 
Q 353 922 353 1747 
Q 353 2572 751 3078 
Q 1150 3584 1784 3584 
Q 2172 3584 2448 3432 
Q 2725 3281 2906 2969 
z
M 947 1747 
Q 947 1113 1208 752 
Q 1469 391 1925 391 
Q 2381 391 2643 752 
Q 2906 1113 2906 1747 
Q 2906 2381 2643 2742 
Q 2381 3103 1925 3103 
Q 1469 3103 1208 2742 
Q 947 2381 947 1747 
z
" id="DejaVuSans-64" transform="scale(0.015625)"/>
     </defs>
     <use xlink:href="#DejaVuSans-49"/>
     <use x="29.492188" xlink:href="#DejaVuSans-72"/>
     <use x="68.355469" xlink:href="#DejaVuSans-65"/>
     <use x="129.878906" xlink:href="#DejaVuSans-6c"/>
     <use x="157.662109" xlink:href="#DejaVuSans-61"/>
     <use x="218.941406" xlink:href="#DejaVuSans-6e"/>
     <use x="282.320312" xlink:href="#DejaVuSans-64"/>
    </g>
   </g>
   <g id="text_2">
    <!-- 16.8% -->
    <g transform="translate(448.246272 199.096139)scale(0.1 -0.1)">
     <defs>
      <path d="M 794 531 
L 1825 531 
L 1825 4091 
L 703 3866 
L 703 4441 
L 1819 4666 
L 2450 4666 
L 2450 531 
L 3481 531 
L 3481 0 
L 794 0 
L 794 531 
z
" id="DejaVuSans-31" transform="scale(0.015625)"/>
      <path d="M 2113 2584 
Q 1688 2584 1439 2293 
Q 1191 2003 1191 1497 
Q 1191 994 1439 701 
Q 1688 409 2113 409 
Q 2538 409 2786 701 
Q 3034 994 3034 1497 
Q 3034 2003 2786 2293 
Q 2538 2584 2113 2584 
z
M 3366 4563 
L 3366 3988 
Q 3128 4100 2886 4159 
Q 2644 4219 2406 4219 
Q 1781 4219 1451 3797 
Q 1122 3375 1075 2522 
Q 1259 2794 1537 2939 
Q 1816 3084 2150 3084 
Q 2853 3084 3261 2657 
Q 3669 2231 3669 1497 
Q 3669 778 3244 343 
Q 2819 -91 2113 -91 
Q 1303 -91 875 529 
Q 447 1150 447 2328 
Q 447 3434 972 4092 
Q 1497 4750 2381 4750 
Q 2619 4750 2861 4703 
Q 3103 4656 3366 4563 
z
" id="DejaVuSans-36" transform="scale(0.015625)"/>
      <path d="M 684 794 
L 1344 794 
L 1344 0 
L 684 0 
L 684 794 
z
" id="DejaVuSans-2e" transform="scale(0.015625)"/>
      <path d="M 2034 2216 
Q 1584 2216 1326 1975 
Q 1069 1734 1069 1313 
Q 1069 891 1326 650 
Q 1584 409 2034 409 
Q 2484 409 2743 651 
Q 3003 894 3003 1313 
Q 3003 1734 2745 1975 
Q 2488 2216 2034 2216 
z
M 1403 2484 
Q 997 2584 770 2862 
Q 544 3141 544 3541 
Q 544 4100 942 4425 
Q 1341 4750 2034 4750 
Q 2731 4750 3128 4425 
Q 3525 4100 3525 3541 
Q 3525 3141 3298 2862 
Q 3072 2584 2669 2484 
Q 3125 2378 3379 2068 
Q 3634 1759 3634 1313 
Q 3634 634 3220 271 
Q 2806 -91 2034 -91 
Q 1263 -91 848 271 
Q 434 634 434 1313 
Q 434 1759 690 2068 
Q 947 2378 1403 2484 
z
M 1172 3481 
Q 1172 3119 1398 2916 
Q 1625 2713 2034 2713 
Q 2441 2713 2670 2916 
Q 2900 3119 2900 3481 
Q 2900 3844 2670 4047 
Q 2441 4250 2034 4250 
Q 1625 4250 1398 4047 
Q 1172 3844 1172 3481 
z
" id="DejaVuSans-38" transform="scale(0.015625)"/>
      <path d="M 4653 2053 
Q 4381 2053 4226 1822 
Q 4072 1591 4072 1178 
Q 4072 772 4226 539 
Q 4381 306 4653 306 
Q 4919 306 5073 539 
Q 5228 772 5228 1178 
Q 5228 1588 5073 1820 
Q 4919 2053 4653 2053 
z
M 4653 2450 
Q 5147 2450 5437 2106 
Q 5728 1763 5728 1178 
Q 5728 594 5436 251 
Q 5144 -91 4653 -91 
Q 4153 -91 3862 251 
Q 3572 594 3572 1178 
Q 3572 1766 3864 2108 
Q 4156 2450 4653 2450 
z
M 1428 4353 
Q 1159 4353 1004 4120 
Q 850 3888 850 3481 
Q 850 3069 1003 2837 
Q 1156 2606 1428 2606 
Q 1700 2606 1854 2837 
Q 2009 3069 2009 3481 
Q 2009 3884 1853 4118 
Q 1697 4353 1428 4353 
z
M 4250 4750 
L 4750 4750 
L 1831 -91 
L 1331 -91 
L 4250 4750 
z
M 1428 4750 
Q 1922 4750 2215 4408 
Q 2509 4066 2509 3481 
Q 2509 2891 2217 2550 
Q 1925 2209 1428 2209 
Q 931 2209 642 2551 
Q 353 2894 353 3481 
Q 353 4063 643 4406 
Q 934 4750 1428 4750 
z
" id="DejaVuSans-25" transform="scale(0.015625)"/>
     </defs>
     <use xlink:href="#DejaVuSans-31"/>
     <use x="63.623047" xlink:href="#DejaVuSans-36"/>
     <use x="127.246094" xlink:href="#DejaVuSans-2e"/>
     <use x="159.033203" xlink:href="#DejaVuSans-38"/>
     <use x="222.65625" xlink:href="#DejaVuSans-25"/>
    </g>
   </g>
   <g id="text_3">
    <!-- Australia -->
    <g transform="translate(281.051381 285.940723)scale(0.1 -0.1)">
     <defs>
      <path d="M 2188 4044 
L 1331 1722 
L 3047 1722 
L 2188 4044 
z
M 1831 4666 
L 2547 4666 
L 4325 0 
L 3669 0 
L 3244 1197 
L 1141 1197 
L 716 0 
L 50 0 
L 1831 4666 
z
" id="DejaVuSans-41" transform="scale(0.015625)"/>
      <path d="M 544 1381 
L 544 3500 
L 1119 3500 
L 1119 1403 
Q 1119 906 1312 657 
Q 1506 409 1894 409 
Q 2359 409 2629 706 
Q 2900 1003 2900 1516 
L 2900 3500 
L 3475 3500 
L 3475 0 
L 2900 0 
L 2900 538 
Q 2691 219 2414 64 
Q 2138 -91 1772 -91 
Q 1169 -91 856 284 
Q 544 659 544 1381 
z
M 1991 3584 
L 1991 3584 
z
" id="DejaVuSans-75" transform="scale(0.015625)"/>
      <path d="M 2834 3397 
L 2834 2853 
Q 2591 2978 2328 3040 
Q 2066 3103 1784 3103 
Q 1356 3103 1142 2972 
Q 928 2841 928 2578 
Q 928 2378 1081 2264 
Q 1234 2150 1697 2047 
L 1894 2003 
Q 2506 1872 2764 1633 
Q 3022 1394 3022 966 
Q 3022 478 2636 193 
Q 2250 -91 1575 -91 
Q 1294 -91 989 -36 
Q 684 19 347 128 
L 347 722 
Q 666 556 975 473 
Q 1284 391 1588 391 
Q 1994 391 2212 530 
Q 2431 669 2431 922 
Q 2431 1156 2273 1281 
Q 2116 1406 1581 1522 
L 1381 1569 
Q 847 1681 609 1914 
Q 372 2147 372 2553 
Q 372 3047 722 3315 
Q 1072 3584 1716 3584 
Q 2034 3584 2315 3537 
Q 2597 3491 2834 3397 
z
" id="DejaVuSans-73" transform="scale(0.015625)"/>
      <path d="M 1172 4494 
L 1172 3500 
L 2356 3500 
L 2356 3053 
L 1172 3053 
L 1172 1153 
Q 1172 725 1289 603 
Q 1406 481 1766 481 
L 2356 481 
L 2356 0 
L 1766 0 
Q 1100 0 847 248 
Q 594 497 594 1153 
L 594 3053 
L 172 3053 
L 172 3500 
L 594 3500 
L 594 4494 
L 1172 4494 
z
" id="DejaVuSans-74" transform="scale(0.015625)"/>
      <path d="M 603 3500 
L 1178 3500 
L 1178 0 
L 603 0 
L 603 3500 
z
M 603 4863 
L 1178 4863 
L 1178 4134 
L 603 4134 
L 603 4863 
z
" id="DejaVuSans-69" transform="scale(0.015625)"/>
     </defs>
     <use xlink:href="#DejaVuSans-41"/>
     <use x="68.408203" xlink:href="#DejaVuSans-75"/>
     <use x="131.787109" xlink:href="#DejaVuSans-73"/>
     <use x="183.886719" xlink:href="#DejaVuSans-74"/>
     <use x="223.095703" xlink:href="#DejaVuSans-72"/>
     <use x="264.208984" xlink:href="#DejaVuSans-61"/>
     <use x="325.488281" xlink:href="#DejaVuSans-6c"/>
     <use x="353.271484" xlink:href="#DejaVuSans-69"/>
     <use x="381.054688" xlink:href="#DejaVuSans-61"/>
    </g>
   </g>
   <g id="text_4">
    <!-- 15.9% -->
    <g transform="translate(396.361478 287.476474)scale(0.1 -0.1)">
     <defs>
      <path d="M 691 4666 
L 3169 4666 
L 3169 4134 
L 1269 4134 
L 1269 2991 
Q 1406 3038 1543 3061 
Q 1681 3084 1819 3084 
Q 2600 3084 3056 2656 
Q 3513 2228 3513 1497 
Q 3513 744 3044 326 
Q 2575 -91 1722 -91 
Q 1428 -91 1123 -41 
Q 819 9 494 109 
L 494 744 
Q 775 591 1075 516 
Q 1375 441 1709 441 
Q 2250 441 2565 725 
Q 2881 1009 2881 1497 
Q 2881 1984 2565 2268 
Q 2250 2553 1709 2553 
Q 1456 2553 1204 2497 
Q 953 2441 691 2322 
L 691 4666 
z
" id="DejaVuSans-35" transform="scale(0.015625)"/>
      <path d="M 703 97 
L 703 672 
Q 941 559 1184 500 
Q 1428 441 1663 441 
Q 2288 441 2617 861 
Q 2947 1281 2994 2138 
Q 2813 1869 2534 1725 
Q 2256 1581 1919 1581 
Q 1219 1581 811 2004 
Q 403 2428 403 3163 
Q 403 3881 828 4315 
Q 1253 4750 1959 4750 
Q 2769 4750 3195 4129 
Q 3622 3509 3622 2328 
Q 3622 1225 3098 567 
Q 2575 -91 1691 -91 
Q 1453 -91 1209 -44 
Q 966 3 703 97 
z
M 1959 2075 
Q 2384 2075 2632 2365 
Q 2881 2656 2881 3163 
Q 2881 3666 2632 3958 
Q 2384 4250 1959 4250 
Q 1534 4250 1286 3958 
Q 1038 3666 1038 3163 
Q 1038 2656 1286 2365 
Q 1534 2075 1959 2075 
z
" id="DejaVuSans-39" transform="scale(0.015625)"/>
     </defs>
     <use xlink:href="#DejaVuSans-31"/>
     <use x="63.623047" xlink:href="#DejaVuSans-35"/>
     <use x="127.246094" xlink:href="#DejaVuSans-2e"/>
     <use x="159.033203" xlink:href="#DejaVuSans-39"/>
     <use x="222.65625" xlink:href="#DejaVuSans-25"/>
    </g>
   </g>
   <g id="text_5">
    <!-- United Kingdom -->
    <g transform="translate(324.879796 444.854836)scale(0.1 -0.1)">
     <defs>
      <path d="M 556 4666 
L 1191 4666 
L 1191 1831 
Q 1191 1081 1462 751 
Q 1734 422 2344 422 
Q 2950 422 3222 751 
Q 3494 1081 3494 1831 
L 3494 4666 
L 4128 4666 
L 4128 1753 
Q 4128 841 3676 375 
Q 3225 -91 2344 -91 
Q 1459 -91 1007 375 
Q 556 841 556 1753 
L 556 4666 
z
" id="DejaVuSans-55" transform="scale(0.015625)"/>
      <path id="DejaVuSans-20" transform="scale(0.015625)"/>
      <path d="M 628 4666 
L 1259 4666 
L 1259 2694 
L 3353 4666 
L 4166 4666 
L 1850 2491 
L 4331 0 
L 3500 0 
L 1259 2247 
L 1259 0 
L 628 0 
L 628 4666 
z
" id="DejaVuSans-4b" transform="scale(0.015625)"/>
      <path d="M 2906 1791 
Q 2906 2416 2648 2759 
Q 2391 3103 1925 3103 
Q 1463 3103 1205 2759 
Q 947 2416 947 1791 
Q 947 1169 1205 825 
Q 1463 481 1925 481 
Q 2391 481 2648 825 
Q 2906 1169 2906 1791 
z
M 3481 434 
Q 3481 -459 3084 -895 
Q 2688 -1331 1869 -1331 
Q 1566 -1331 1297 -1286 
Q 1028 -1241 775 -1147 
L 775 -588 
Q 1028 -725 1275 -790 
Q 1522 -856 1778 -856 
Q 2344 -856 2625 -561 
Q 2906 -266 2906 331 
L 2906 616 
Q 2728 306 2450 153 
Q 2172 0 1784 0 
Q 1141 0 747 490 
Q 353 981 353 1791 
Q 353 2603 747 3093 
Q 1141 3584 1784 3584 
Q 2172 3584 2450 3431 
Q 2728 3278 2906 2969 
L 2906 3500 
L 3481 3500 
L 3481 434 
z
" id="DejaVuSans-67" transform="scale(0.015625)"/>
      <path d="M 1959 3097 
Q 1497 3097 1228 2736 
Q 959 2375 959 1747 
Q 959 1119 1226 758 
Q 1494 397 1959 397 
Q 2419 397 2687 759 
Q 2956 1122 2956 1747 
Q 2956 2369 2687 2733 
Q 2419 3097 1959 3097 
z
M 1959 3584 
Q 2709 3584 3137 3096 
Q 3566 2609 3566 1747 
Q 3566 888 3137 398 
Q 2709 -91 1959 -91 
Q 1206 -91 779 398 
Q 353 888 353 1747 
Q 353 2609 779 3096 
Q 1206 3584 1959 3584 
z
" id="DejaVuSans-6f" transform="scale(0.015625)"/>
      <path d="M 3328 2828 
Q 3544 3216 3844 3400 
Q 4144 3584 4550 3584 
Q 5097 3584 5394 3201 
Q 5691 2819 5691 2113 
L 5691 0 
L 5113 0 
L 5113 2094 
Q 5113 2597 4934 2840 
Q 4756 3084 4391 3084 
Q 3944 3084 3684 2787 
Q 3425 2491 3425 1978 
L 3425 0 
L 2847 0 
L 2847 2094 
Q 2847 2600 2669 2842 
Q 2491 3084 2119 3084 
Q 1678 3084 1418 2786 
Q 1159 2488 1159 1978 
L 1159 0 
L 581 0 
L 581 3500 
L 1159 3500 
L 1159 2956 
Q 1356 3278 1631 3431 
Q 1906 3584 2284 3584 
Q 2666 3584 2933 3390 
Q 3200 3197 3328 2828 
z
" id="DejaVuSans-6d" transform="scale(0.015625)"/>
     </defs>
     <use xlink:href="#DejaVuSans-55"/>
     <use x="73.193359" xlink:href="#DejaVuSans-6e"/>
     <use x="136.572266" xlink:href="#DejaVuSans-69"/>
     <use x="164.355469" xlink:href="#DejaVuSans-74"/>
     <use x="203.564453" xlink:href="#DejaVuSans-65"/>
     <use x="265.087891" xlink:href="#DejaVuSans-64"/>
     <use x="328.564453" xlink:href="#DejaVuSans-20"/>
     <use x="360.351562" xlink:href="#DejaVuSans-4b"/>
     <use x="425.927734" xlink:href="#DejaVuSans-69"/>
     <use x="453.710938" xlink:href="#DejaVuSans-6e"/>
     <use x="517.089844" xlink:href="#DejaVuSans-67"/>
     <use x="580.566406" xlink:href="#DejaVuSans-64"/>
     <use x="644.042969" xlink:href="#DejaVuSans-6f"/>
     <use x="705.224609" xlink:href="#DejaVuSans-6d"/>
    </g>
   </g>
   <g id="text_6">
    <!-- 14.9% -->
    <g transform="translate(439.922147 374.156899)scale(0.1 -0.1)">
     <defs>
      <path d="M 2419 4116 
L 825 1625 
L 2419 1625 
L 2419 4116 
z
M 2253 4666 
L 3047 4666 
L 3047 1625 
L 3713 1625 
L 3713 1100 
L 3047 1100 
L 3047 0 
L 2419 0 
L 2419 1100 
L 313 1100 
L 313 1709 
L 2253 4666 
z
" id="DejaVuSans-34" transform="scale(0.015625)"/>
     </defs>
     <use xlink:href="#DejaVuSans-31"/>
     <use x="63.623047" xlink:href="#DejaVuSans-34"/>
     <use x="127.246094" xlink:href="#DejaVuSans-2e"/>
     <use x="159.033203" xlink:href="#DejaVuSans-39"/>
     <use x="222.65625" xlink:href="#DejaVuSans-25"/>
    </g>
   </g>
   <g id="text_7">
    <!-- New Zealand -->
    <g transform="translate(557.854236 476.166476)scale(0.1 -0.1)">
     <defs>
      <path d="M 628 4666 
L 1478 4666 
L 3547 763 
L 3547 4666 
L 4159 4666 
L 4159 0 
L 3309 0 
L 1241 3903 
L 1241 0 
L 628 0 
L 628 4666 
z
" id="DejaVuSans-4e" transform="scale(0.015625)"/>
      <path d="M 269 3500 
L 844 3500 
L 1563 769 
L 2278 3500 
L 2956 3500 
L 3675 769 
L 4391 3500 
L 4966 3500 
L 4050 0 
L 3372 0 
L 2619 2869 
L 1863 0 
L 1184 0 
L 269 3500 
z
" id="DejaVuSans-77" transform="scale(0.015625)"/>
      <path d="M 359 4666 
L 4025 4666 
L 4025 4184 
L 1075 531 
L 4097 531 
L 4097 0 
L 288 0 
L 288 481 
L 3238 4134 
L 359 4134 
L 359 4666 
z
" id="DejaVuSans-5a" transform="scale(0.015625)"/>
     </defs>
     <use xlink:href="#DejaVuSans-4e"/>
     <use x="74.804688" xlink:href="#DejaVuSans-65"/>
     <use x="136.328125" xlink:href="#DejaVuSans-77"/>
     <use x="218.115234" xlink:href="#DejaVuSans-20"/>
     <use x="249.902344" xlink:href="#DejaVuSans-5a"/>
     <use x="318.408203" xlink:href="#DejaVuSans-65"/>
     <use x="379.931641" xlink:href="#DejaVuSans-61"/>
     <use x="441.210938" xlink:href="#DejaVuSans-6c"/>
     <use x="468.994141" xlink:href="#DejaVuSans-61"/>
     <use x="530.273438" xlink:href="#DejaVuSans-6e"/>
     <use x="593.652344" xlink:href="#DejaVuSans-64"/>
    </g>
   </g>
   <g id="text_8">
    <!-- 11.8% -->
    <g transform="translate(523.218717 391.235975)scale(0.1 -0.1)">
     <use xlink:href="#DejaVuSans-31"/>
     <use x="63.623047" xlink:href="#DejaVuSans-31"/>
     <use x="127.246094" xlink:href="#DejaVuSans-2e"/>
     <use x="159.033203" xlink:href="#DejaVuSans-38"/>
     <use x="222.65625" xlink:href="#DejaVuSans-25"/>
    </g>
   </g>
   <g id="text_9">
    <!-- United States of America -->
    <g transform="translate(667.883576 406.481786)scale(0.1 -0.1)">
     <defs>
      <path d="M 3425 4513 
L 3425 3897 
Q 3066 4069 2747 4153 
Q 2428 4238 2131 4238 
Q 1616 4238 1336 4038 
Q 1056 3838 1056 3469 
Q 1056 3159 1242 3001 
Q 1428 2844 1947 2747 
L 2328 2669 
Q 3034 2534 3370 2195 
Q 3706 1856 3706 1288 
Q 3706 609 3251 259 
Q 2797 -91 1919 -91 
Q 1588 -91 1214 -16 
Q 841 59 441 206 
L 441 856 
Q 825 641 1194 531 
Q 1563 422 1919 422 
Q 2459 422 2753 634 
Q 3047 847 3047 1241 
Q 3047 1584 2836 1778 
Q 2625 1972 2144 2069 
L 1759 2144 
Q 1053 2284 737 2584 
Q 422 2884 422 3419 
Q 422 4038 858 4394 
Q 1294 4750 2059 4750 
Q 2388 4750 2728 4690 
Q 3069 4631 3425 4513 
z
" id="DejaVuSans-53" transform="scale(0.015625)"/>
      <path d="M 2375 4863 
L 2375 4384 
L 1825 4384 
Q 1516 4384 1395 4259 
Q 1275 4134 1275 3809 
L 1275 3500 
L 2222 3500 
L 2222 3053 
L 1275 3053 
L 1275 0 
L 697 0 
L 697 3053 
L 147 3053 
L 147 3500 
L 697 3500 
L 697 3744 
Q 697 4328 969 4595 
Q 1241 4863 1831 4863 
L 2375 4863 
z
" id="DejaVuSans-66" transform="scale(0.015625)"/>
      <path d="M 3122 3366 
L 3122 2828 
Q 2878 2963 2633 3030 
Q 2388 3097 2138 3097 
Q 1578 3097 1268 2742 
Q 959 2388 959 1747 
Q 959 1106 1268 751 
Q 1578 397 2138 397 
Q 2388 397 2633 464 
Q 2878 531 3122 666 
L 3122 134 
Q 2881 22 2623 -34 
Q 2366 -91 2075 -91 
Q 1284 -91 818 406 
Q 353 903 353 1747 
Q 353 2603 823 3093 
Q 1294 3584 2113 3584 
Q 2378 3584 2631 3529 
Q 2884 3475 3122 3366 
z
" id="DejaVuSans-63" transform="scale(0.015625)"/>
     </defs>
     <use xlink:href="#DejaVuSans-55"/>
     <use x="73.193359" xlink:href="#DejaVuSans-6e"/>
     <use x="136.572266" xlink:href="#DejaVuSans-69"/>
     <use x="164.355469" xlink:href="#DejaVuSans-74"/>
     <use x="203.564453" xlink:href="#DejaVuSans-65"/>
     <use x="265.087891" xlink:href="#DejaVuSans-64"/>
     <use x="328.564453" xlink:href="#DejaVuSans-20"/>
     <use x="360.351562" xlink:href="#DejaVuSans-53"/>
     <use x="423.828125" xlink:href="#DejaVuSans-74"/>
     <use x="463.037109" xlink:href="#DejaVuSans-61"/>
     <use x="524.316406" xlink:href="#DejaVuSans-74"/>
     <use x="563.525391" xlink:href="#DejaVuSans-65"/>
     <use x="625.048828" xlink:href="#DejaVuSans-73"/>
     <use x="677.148438" xlink:href="#DejaVuSans-20"/>
     <use x="708.935547" xlink:href="#DejaVuSans-6f"/>
     <use x="770.117188" xlink:href="#DejaVuSans-66"/>
     <use x="805.322266" xlink:href="#DejaVuSans-20"/>
     <use x="837.109375" xlink:href="#DejaVuSans-41"/>
     <use x="905.517578" xlink:href="#DejaVuSans-6d"/>
     <use x="1002.929688" xlink:href="#DejaVuSans-65"/>
     <use x="1064.453125" xlink:href="#DejaVuSans-72"/>
     <use x="1105.566406" xlink:href="#DejaVuSans-69"/>
     <use x="1133.349609" xlink:href="#DejaVuSans-63"/>
     <use x="1188.330078" xlink:href="#DejaVuSans-61"/>
    </g>
   </g>
   <g id="text_10">
    <!-- 10.3% -->
    <g transform="translate(583.23472 353.226145)scale(0.1 -0.1)">
     <defs>
      <path d="M 2034 4250 
Q 1547 4250 1301 3770 
Q 1056 3291 1056 2328 
Q 1056 1369 1301 889 
Q 1547 409 2034 409 
Q 2525 409 2770 889 
Q 3016 1369 3016 2328 
Q 3016 3291 2770 3770 
Q 2525 4250 2034 4250 
z
M 2034 4750 
Q 2819 4750 3233 4129 
Q 3647 3509 3647 2328 
Q 3647 1150 3233 529 
Q 2819 -91 2034 -91 
Q 1250 -91 836 529 
Q 422 1150 422 2328 
Q 422 3509 836 4129 
Q 1250 4750 2034 4750 
z
" id="DejaVuSans-30" transform="scale(0.015625)"/>
      <path d="M 2597 2516 
Q 3050 2419 3304 2112 
Q 3559 1806 3559 1356 
Q 3559 666 3084 287 
Q 2609 -91 1734 -91 
Q 1441 -91 1130 -33 
Q 819 25 488 141 
L 488 750 
Q 750 597 1062 519 
Q 1375 441 1716 441 
Q 2309 441 2620 675 
Q 2931 909 2931 1356 
Q 2931 1769 2642 2001 
Q 2353 2234 1838 2234 
L 1294 2234 
L 1294 2753 
L 1863 2753 
Q 2328 2753 2575 2939 
Q 2822 3125 2822 3475 
Q 2822 3834 2567 4026 
Q 2313 4219 1838 4219 
Q 1578 4219 1281 4162 
Q 984 4106 628 3988 
L 628 4550 
Q 988 4650 1302 4700 
Q 1616 4750 1894 4750 
Q 2613 4750 3031 4423 
Q 3450 4097 3450 3541 
Q 3450 3153 3228 2886 
Q 3006 2619 2597 2516 
z
" id="DejaVuSans-33" transform="scale(0.015625)"/>
     </defs>
     <use xlink:href="#DejaVuSans-31"/>
     <use x="63.623047" xlink:href="#DejaVuSans-30"/>
     <use x="127.246094" xlink:href="#DejaVuSans-2e"/>
     <use x="159.033203" xlink:href="#DejaVuSans-33"/>
     <use x="222.65625" xlink:href="#DejaVuSans-25"/>
    </g>
   </g>
   <g id="text_11">
    <!-- Canada -->
    <g transform="translate(707.690167 299.233958)scale(0.1 -0.1)">
     <defs>
      <path d="M 4122 4306 
L 4122 3641 
Q 3803 3938 3442 4084 
Q 3081 4231 2675 4231 
Q 1875 4231 1450 3742 
Q 1025 3253 1025 2328 
Q 1025 1406 1450 917 
Q 1875 428 2675 428 
Q 3081 428 3442 575 
Q 3803 722 4122 1019 
L 4122 359 
Q 3791 134 3420 21 
Q 3050 -91 2638 -91 
Q 1578 -91 968 557 
Q 359 1206 359 2328 
Q 359 3453 968 4101 
Q 1578 4750 2638 4750 
Q 3056 4750 3426 4639 
Q 3797 4528 4122 4306 
z
" id="DejaVuSans-43" transform="scale(0.015625)"/>
     </defs>
     <use xlink:href="#DejaVuSans-43"/>
     <use x="69.824219" xlink:href="#DejaVuSans-61"/>
     <use x="131.103516" xlink:href="#DejaVuSans-6e"/>
     <use x="194.482422" xlink:href="#DejaVuSans-61"/>
     <use x="255.761719" xlink:href="#DejaVuSans-64"/>
     <use x="319.238281" xlink:href="#DejaVuSans-61"/>
    </g>
   </g>
   <g id="text_12">
    <!-- 9.1% -->
    <g transform="translate(608.128657 294.727329)scale(0.1 -0.1)">
     <use xlink:href="#DejaVuSans-39"/>
     <use x="63.623047" xlink:href="#DejaVuSans-2e"/>
     <use x="95.410156" xlink:href="#DejaVuSans-31"/>
     <use x="159.033203" xlink:href="#DejaVuSans-25"/>
    </g>
   </g>
   <g id="text_13">
    <!-- South Africa -->
    <g transform="translate(689.686387 207.742089)scale(0.1 -0.1)">
     <defs>
      <path d="M 3513 2113 
L 3513 0 
L 2938 0 
L 2938 2094 
Q 2938 2591 2744 2837 
Q 2550 3084 2163 3084 
Q 1697 3084 1428 2787 
Q 1159 2491 1159 1978 
L 1159 0 
L 581 0 
L 581 4863 
L 1159 4863 
L 1159 2956 
Q 1366 3272 1645 3428 
Q 1925 3584 2291 3584 
Q 2894 3584 3203 3211 
Q 3513 2838 3513 2113 
z
" id="DejaVuSans-68" transform="scale(0.015625)"/>
     </defs>
     <use xlink:href="#DejaVuSans-53"/>
     <use x="63.476562" xlink:href="#DejaVuSans-6f"/>
     <use x="124.658203" xlink:href="#DejaVuSans-75"/>
     <use x="188.037109" xlink:href="#DejaVuSans-74"/>
     <use x="227.246094" xlink:href="#DejaVuSans-68"/>
     <use x="290.625" xlink:href="#DejaVuSans-20"/>
     <use x="322.412109" xlink:href="#DejaVuSans-41"/>
     <use x="387.195312" xlink:href="#DejaVuSans-66"/>
     <use x="422.400391" xlink:href="#DejaVuSans-72"/>
     <use x="463.513672" xlink:href="#DejaVuSans-69"/>
     <use x="491.296875" xlink:href="#DejaVuSans-63"/>
     <use x="546.277344" xlink:href="#DejaVuSans-61"/>
    </g>
   </g>
   <g id="text_14">
    <!-- 6.6% -->
    <g transform="translate(598.308413 244.822674)scale(0.1 -0.1)">
     <use xlink:href="#DejaVuSans-36"/>
     <use x="63.623047" xlink:href="#DejaVuSans-2e"/>
     <use x="95.410156" xlink:href="#DejaVuSans-36"/>
     <use x="159.033203" xlink:href="#DejaVuSans-25"/>
    </g>
   </g>
   <g id="text_15">
    <!-- India -->
    <g transform="translate(642.642446 145.350445)scale(0.1 -0.1)">
     <use xlink:href="#DejaVuSans-49"/>
     <use x="29.492188" xlink:href="#DejaVuSans-6e"/>
     <use x="92.871094" xlink:href="#DejaVuSans-64"/>
     <use x="156.347656" xlink:href="#DejaVuSans-69"/>
     <use x="184.130859" xlink:href="#DejaVuSans-61"/>
    </g>
   </g>
   <g id="text_16">
    <!-- 6.5% -->
    <g transform="translate(572.648081 210.790868)scale(0.1 -0.1)">
     <use xlink:href="#DejaVuSans-36"/>
     <use x="63.623047" xlink:href="#DejaVuSans-2e"/>
     <use x="95.410156" xlink:href="#DejaVuSans-35"/>
     <use x="159.033203" xlink:href="#DejaVuSans-25"/>
    </g>
   </g>
   <g id="text_17">
    <!-- Tang Empire -->
    <g transform="translate(588.43462 111.967921)scale(0.1 -0.1)">
     <defs>
      <path d="M -19 4666 
L 3928 4666 
L 3928 4134 
L 2272 4134 
L 2272 0 
L 1638 0 
L 1638 4134 
L -19 4134 
L -19 4666 
z
" id="DejaVuSans-54" transform="scale(0.015625)"/>
      <path d="M 628 4666 
L 3578 4666 
L 3578 4134 
L 1259 4134 
L 1259 2753 
L 3481 2753 
L 3481 2222 
L 1259 2222 
L 1259 531 
L 3634 531 
L 3634 0 
L 628 0 
L 628 4666 
z
" id="DejaVuSans-45" transform="scale(0.015625)"/>
      <path d="M 1159 525 
L 1159 -1331 
L 581 -1331 
L 581 3500 
L 1159 3500 
L 1159 2969 
Q 1341 3281 1617 3432 
Q 1894 3584 2278 3584 
Q 2916 3584 3314 3078 
Q 3713 2572 3713 1747 
Q 3713 922 3314 415 
Q 2916 -91 2278 -91 
Q 1894 -91 1617 61 
Q 1341 213 1159 525 
z
M 3116 1747 
Q 3116 2381 2855 2742 
Q 2594 3103 2138 3103 
Q 1681 3103 1420 2742 
Q 1159 2381 1159 1747 
Q 1159 1113 1420 752 
Q 1681 391 2138 391 
Q 2594 391 2855 752 
Q 3116 1113 3116 1747 
z
" id="DejaVuSans-70" transform="scale(0.015625)"/>
     </defs>
     <use xlink:href="#DejaVuSans-54"/>
     <use x="44.583984" xlink:href="#DejaVuSans-61"/>
     <use x="105.863281" xlink:href="#DejaVuSans-6e"/>
     <use x="169.242188" xlink:href="#DejaVuSans-67"/>
     <use x="232.71875" xlink:href="#DejaVuSans-20"/>
     <use x="264.505859" xlink:href="#DejaVuSans-45"/>
     <use x="327.689453" xlink:href="#DejaVuSans-6d"/>
     <use x="425.101562" xlink:href="#DejaVuSans-70"/>
     <use x="488.578125" xlink:href="#DejaVuSans-69"/>
     <use x="516.361328" xlink:href="#DejaVuSans-72"/>
     <use x="555.224609" xlink:href="#DejaVuSans-65"/>
    </g>
   </g>
   <g id="text_18">
    <!-- 4.2% -->
    <g transform="translate(543.080176 192.582218)scale(0.1 -0.1)">
     <defs>
      <path d="M 1228 531 
L 3431 531 
L 3431 0 
L 469 0 
L 469 531 
Q 828 903 1448 1529 
Q 2069 2156 2228 2338 
Q 2531 2678 2651 2914 
Q 2772 3150 2772 3378 
Q 2772 3750 2511 3984 
Q 2250 4219 1831 4219 
Q 1534 4219 1204 4116 
Q 875 4013 500 3803 
L 500 4441 
Q 881 4594 1212 4672 
Q 1544 4750 1819 4750 
Q 2544 4750 2975 4387 
Q 3406 4025 3406 3419 
Q 3406 3131 3298 2873 
Q 3191 2616 2906 2266 
Q 2828 2175 2409 1742 
Q 1991 1309 1228 531 
z
" id="DejaVuSans-32" transform="scale(0.015625)"/>
     </defs>
     <use xlink:href="#DejaVuSans-34"/>
     <use x="63.623047" xlink:href="#DejaVuSans-2e"/>
     <use x="95.410156" xlink:href="#DejaVuSans-32"/>
     <use x="159.033203" xlink:href="#DejaVuSans-25"/>
    </g>
   </g>
   <g id="text_19">
    <!-- People's Republic of China -->
    <g transform="translate(540.857616 99.516006)scale(0.1 -0.1)">
     <defs>
      <path d="M 1259 4147 
L 1259 2394 
L 2053 2394 
Q 2494 2394 2734 2622 
Q 2975 2850 2975 3272 
Q 2975 3691 2734 3919 
Q 2494 4147 2053 4147 
L 1259 4147 
z
M 628 4666 
L 2053 4666 
Q 2838 4666 3239 4311 
Q 3641 3956 3641 3272 
Q 3641 2581 3239 2228 
Q 2838 1875 2053 1875 
L 1259 1875 
L 1259 0 
L 628 0 
L 628 4666 
z
" id="DejaVuSans-50" transform="scale(0.015625)"/>
      <path d="M 1147 4666 
L 1147 2931 
L 616 2931 
L 616 4666 
L 1147 4666 
z
" id="DejaVuSans-27" transform="scale(0.015625)"/>
      <path d="M 2841 2188 
Q 3044 2119 3236 1894 
Q 3428 1669 3622 1275 
L 4263 0 
L 3584 0 
L 2988 1197 
Q 2756 1666 2539 1819 
Q 2322 1972 1947 1972 
L 1259 1972 
L 1259 0 
L 628 0 
L 628 4666 
L 2053 4666 
Q 2853 4666 3247 4331 
Q 3641 3997 3641 3322 
Q 3641 2881 3436 2590 
Q 3231 2300 2841 2188 
z
M 1259 4147 
L 1259 2491 
L 2053 2491 
Q 2509 2491 2742 2702 
Q 2975 2913 2975 3322 
Q 2975 3731 2742 3939 
Q 2509 4147 2053 4147 
L 1259 4147 
z
" id="DejaVuSans-52" transform="scale(0.015625)"/>
      <path d="M 3116 1747 
Q 3116 2381 2855 2742 
Q 2594 3103 2138 3103 
Q 1681 3103 1420 2742 
Q 1159 2381 1159 1747 
Q 1159 1113 1420 752 
Q 1681 391 2138 391 
Q 2594 391 2855 752 
Q 3116 1113 3116 1747 
z
M 1159 2969 
Q 1341 3281 1617 3432 
Q 1894 3584 2278 3584 
Q 2916 3584 3314 3078 
Q 3713 2572 3713 1747 
Q 3713 922 3314 415 
Q 2916 -91 2278 -91 
Q 1894 -91 1617 61 
Q 1341 213 1159 525 
L 1159 0 
L 581 0 
L 581 4863 
L 1159 4863 
L 1159 2969 
z
" id="DejaVuSans-62" transform="scale(0.015625)"/>
     </defs>
     <use xlink:href="#DejaVuSans-50"/>
     <use x="56.677734" xlink:href="#DejaVuSans-65"/>
     <use x="118.201172" xlink:href="#DejaVuSans-6f"/>
     <use x="179.382812" xlink:href="#DejaVuSans-70"/>
     <use x="242.859375" xlink:href="#DejaVuSans-6c"/>
     <use x="270.642578" xlink:href="#DejaVuSans-65"/>
     <use x="332.166016" xlink:href="#DejaVuSans-27"/>
     <use x="359.65625" xlink:href="#DejaVuSans-73"/>
     <use x="411.755859" xlink:href="#DejaVuSans-20"/>
     <use x="443.542969" xlink:href="#DejaVuSans-52"/>
     <use x="508.525391" xlink:href="#DejaVuSans-65"/>
     <use x="570.048828" xlink:href="#DejaVuSans-70"/>
     <use x="633.525391" xlink:href="#DejaVuSans-75"/>
     <use x="696.904297" xlink:href="#DejaVuSans-62"/>
     <use x="760.380859" xlink:href="#DejaVuSans-6c"/>
     <use x="788.164062" xlink:href="#DejaVuSans-69"/>
     <use x="815.947266" xlink:href="#DejaVuSans-63"/>
     <use x="870.927734" xlink:href="#DejaVuSans-20"/>
     <use x="902.714844" xlink:href="#DejaVuSans-6f"/>
     <use x="963.896484" xlink:href="#DejaVuSans-66"/>
     <use x="999.101562" xlink:href="#DejaVuSans-20"/>
     <use x="1030.888672" xlink:href="#DejaVuSans-43"/>
     <use x="1100.712891" xlink:href="#DejaVuSans-68"/>
     <use x="1164.091797" xlink:href="#DejaVuSans-69"/>
     <use x="1191.875" xlink:href="#DejaVuSans-6e"/>
     <use x="1255.253906" xlink:href="#DejaVuSans-61"/>
    </g>
   </g>
   <g id="text_20">
    <!-- 4.0% -->
    <g transform="translate(517.129083 185.790264)scale(0.1 -0.1)">
     <use xlink:href="#DejaVuSans-34"/>
     <use x="63.623047" xlink:href="#DejaVuSans-2e"/>
     <use x="95.410156" xlink:href="#DejaVuSans-30"/>
     <use x="159.033203" xlink:href="#DejaVuSans-25"/>
    </g>
   </g>
   <g id="text_21">
    <!-- Top 10 ratios per nationality of environmental speakers -->
    <g transform="translate(350.498438 63.12)scale(0.12 -0.12)">
     <defs>
      <path d="M 2059 -325 
Q 1816 -950 1584 -1140 
Q 1353 -1331 966 -1331 
L 506 -1331 
L 506 -850 
L 844 -850 
Q 1081 -850 1212 -737 
Q 1344 -625 1503 -206 
L 1606 56 
L 191 3500 
L 800 3500 
L 1894 763 
L 2988 3500 
L 3597 3500 
L 2059 -325 
z
" id="DejaVuSans-79" transform="scale(0.015625)"/>
      <path d="M 191 3500 
L 800 3500 
L 1894 563 
L 2988 3500 
L 3597 3500 
L 2284 0 
L 1503 0 
L 191 3500 
z
" id="DejaVuSans-76" transform="scale(0.015625)"/>
      <path d="M 581 4863 
L 1159 4863 
L 1159 1991 
L 2875 3500 
L 3609 3500 
L 1753 1863 
L 3688 0 
L 2938 0 
L 1159 1709 
L 1159 0 
L 581 0 
L 581 4863 
z
" id="DejaVuSans-6b" transform="scale(0.015625)"/>
     </defs>
     <use xlink:href="#DejaVuSans-54"/>
     <use x="44.083984" xlink:href="#DejaVuSans-6f"/>
     <use x="105.265625" xlink:href="#DejaVuSans-70"/>
     <use x="168.742188" xlink:href="#DejaVuSans-20"/>
     <use x="200.529297" xlink:href="#DejaVuSans-31"/>
     <use x="264.152344" xlink:href="#DejaVuSans-30"/>
     <use x="327.775391" xlink:href="#DejaVuSans-20"/>
     <use x="359.5625" xlink:href="#DejaVuSans-72"/>
     <use x="400.675781" xlink:href="#DejaVuSans-61"/>
     <use x="461.955078" xlink:href="#DejaVuSans-74"/>
     <use x="501.164062" xlink:href="#DejaVuSans-69"/>
     <use x="528.947266" xlink:href="#DejaVuSans-6f"/>
     <use x="590.128906" xlink:href="#DejaVuSans-73"/>
     <use x="642.228516" xlink:href="#DejaVuSans-20"/>
     <use x="674.015625" xlink:href="#DejaVuSans-70"/>
     <use x="737.492188" xlink:href="#DejaVuSans-65"/>
     <use x="799.015625" xlink:href="#DejaVuSans-72"/>
     <use x="840.128906" xlink:href="#DejaVuSans-20"/>
     <use x="871.916016" xlink:href="#DejaVuSans-6e"/>
     <use x="935.294922" xlink:href="#DejaVuSans-61"/>
     <use x="996.574219" xlink:href="#DejaVuSans-74"/>
     <use x="1035.783203" xlink:href="#DejaVuSans-69"/>
     <use x="1063.566406" xlink:href="#DejaVuSans-6f"/>
     <use x="1124.748047" xlink:href="#DejaVuSans-6e"/>
     <use x="1188.126953" xlink:href="#DejaVuSans-61"/>
     <use x="1249.40625" xlink:href="#DejaVuSans-6c"/>
     <use x="1277.189453" xlink:href="#DejaVuSans-69"/>
     <use x="1304.972656" xlink:href="#DejaVuSans-74"/>
     <use x="1344.181641" xlink:href="#DejaVuSans-79"/>
     <use x="1403.361328" xlink:href="#DejaVuSans-20"/>
     <use x="1435.148438" xlink:href="#DejaVuSans-6f"/>
     <use x="1496.330078" xlink:href="#DejaVuSans-66"/>
     <use x="1531.535156" xlink:href="#DejaVuSans-20"/>
     <use x="1563.322266" xlink:href="#DejaVuSans-65"/>
     <use x="1624.845703" xlink:href="#DejaVuSans-6e"/>
     <use x="1688.224609" xlink:href="#DejaVuSans-76"/>
     <use x="1747.404297" xlink:href="#DejaVuSans-69"/>
     <use x="1775.1875" xlink:href="#DejaVuSans-72"/>
     <use x="1814.050781" xlink:href="#DejaVuSans-6f"/>
     <use x="1875.232422" xlink:href="#DejaVuSans-6e"/>
     <use x="1938.611328" xlink:href="#DejaVuSans-6d"/>
     <use x="2036.023438" xlink:href="#DejaVuSans-65"/>
     <use x="2097.546875" xlink:href="#DejaVuSans-6e"/>
     <use x="2160.925781" xlink:href="#DejaVuSans-74"/>
     <use x="2200.134766" xlink:href="#DejaVuSans-61"/>
     <use x="2261.414062" xlink:href="#DejaVuSans-6c"/>
     <use x="2289.197266" xlink:href="#DejaVuSans-20"/>
     <use x="2320.984375" xlink:href="#DejaVuSans-73"/>
     <use x="2373.083984" xlink:href="#DejaVuSans-70"/>
     <use x="2436.560547" xlink:href="#DejaVuSans-65"/>
     <use x="2498.083984" xlink:href="#DejaVuSans-61"/>
     <use x="2559.363281" xlink:href="#DejaVuSans-6b"/>
     <use x="2613.648438" xlink:href="#DejaVuSans-65"/>
     <use x="2675.171875" xlink:href="#DejaVuSans-72"/>
     <use x="2716.285156" xlink:href="#DejaVuSans-73"/>
    </g>
   </g>
  </g>
 </g>
</svg>
